# Blender v2.79 (sub 0) OBJ File: ''
# www.blender.org
mtllib hall 2.mtl
o Plane
v -8.000000 32.000000 -0.000001
v -8.000000 0.000000 0.000000
v -8.000000 16.000000 -0.000001
v -8.000000 24.000000 -0.000001
v -4.000000 32.000000 -0.000002
v -4.000000 16.000000 -0.000001
v -4.000000 0.000000 -0.000000
v -8.000000 4.000000 -0.000000
v -8.000000 28.000000 -0.000001
v -8.000000 20.000000 -0.000001
v -4.000000 24.000000 -0.000001
v -4.000000 20.000000 -0.000001
v -4.000000 28.000000 -0.000002
v -4.000000 4.000000 -0.000001
v -2.000000 32.000000 -0.000002
v -2.000000 16.000000 -0.000001
v -10.000000 32.000000 -0.000001
v -6.000000 0.000000 -0.000000
v -10.000000 16.000000 -0.000001
v -8.000000 6.000000 -0.000000
v -8.000000 30.000000 -0.000001
v -8.000000 22.000000 -0.000001
v -2.000000 24.000000 -0.000002
v -10.000000 24.000000 -0.000001
v -6.000000 32.000000 -0.000002
v -10.000000 0.000000 0.000000
v -6.000000 16.000000 -0.000001
v -2.000000 0.000000 -0.000001
v -8.000000 2.000000 -0.000000
v -8.000000 26.000000 -0.000001
v -8.000000 18.000000 -0.000001
v -6.000000 24.000000 -0.000001
v -10.000000 20.000000 -0.000001
v -4.000000 22.000000 -0.000001
v -4.000000 18.000000 -0.000001
v -2.000000 20.000000 -0.000001
v -6.000000 20.000000 -0.000001
v -4.000000 30.000000 -0.000002
v -4.000000 26.000000 -0.000001
v -2.000000 28.000000 -0.000002
v -6.000000 28.000000 -0.000001
v -10.000000 4.000000 0.000000
v -4.000000 6.000000 -0.000001
v -4.000000 2.000000 -0.000000
v -2.000000 4.000000 -0.000001
v -6.000000 4.000000 -0.000000
v -10.000000 28.000000 -0.000001
v -10.000000 26.000000 -0.000001
v -10.000000 30.000000 -0.000001
v -6.000000 2.000000 -0.000000
v -2.000000 2.000000 -0.000001
v -2.000000 6.000000 -0.000001
v -10.000000 2.000000 0.000000
v -10.000000 6.000000 -0.000000
v -6.000000 26.000000 -0.000001
v -2.000000 26.000000 -0.000002
v -2.000000 30.000000 -0.000002
v -6.000000 18.000000 -0.000001
v -2.000000 18.000000 -0.000001
v -2.000000 22.000000 -0.000001
v -10.000000 18.000000 -0.000001
v -10.000000 22.000000 -0.000001
v -6.000000 22.000000 -0.000001
v -6.000000 30.000000 -0.000001
v -6.000000 6.000000 -0.000000
v -6.000000 14.000000 -0.000001
v -1.000000 32.000000 -0.000002
v -1.000000 16.000000 -0.000001
v -9.000000 32.000000 -0.000001
v -7.000000 0.000000 -0.000000
v -9.000000 16.000000 -0.000001
v -8.000000 15.000000 -0.000001
v -8.000000 31.000000 -0.000001
v -8.000000 23.000000 -0.000001
v -1.000000 24.000000 -0.000002
v -9.000000 24.000000 -0.000001
v -5.000000 32.000000 -0.000002
v -5.000000 16.000000 -0.000001
v -3.000000 0.000000 -0.000000
v -8.000000 3.000000 -0.000000
v -8.000000 27.000000 -0.000001
v -8.000000 19.000000 -0.000001
v -5.000000 24.000000 -0.000001
v -9.000000 20.000000 -0.000001
v -4.000000 23.000000 -0.000001
v -4.000000 19.000000 -0.000001
v -1.000000 20.000000 -0.000001
v -5.000000 20.000000 -0.000001
v -4.000000 31.000000 -0.000002
v -4.000000 27.000000 -0.000002
v -1.000000 28.000000 -0.000002
v -5.000000 28.000000 -0.000001
v -9.000000 4.000000 -0.000000
v -4.000000 3.000000 -0.000000
v -1.000000 4.000000 -0.000001
v -5.000000 4.000000 -0.000000
v -4.000000 15.000000 -0.000001
v -9.000000 28.000000 -0.000001
v -3.000000 32.000000 -0.000002
v -3.000000 16.000000 -0.000001
v -5.000000 0.000000 -0.000000
v -8.000000 5.000000 -0.000000
v -8.000000 29.000000 -0.000001
v -8.000000 21.000000 -0.000001
v -3.000000 24.000000 -0.000001
v -7.000000 32.000000 -0.000001
v -9.000000 0.000000 0.000000
v -7.000000 16.000000 -0.000001
v -1.000000 0.000000 -0.000001
v -8.000000 1.000000 -0.000000
v -8.000000 25.000000 -0.000001
v -8.000000 17.000000 -0.000001
v -7.000000 24.000000 -0.000001
v -4.000000 21.000000 -0.000001
v -4.000000 17.000000 -0.000001
v -3.000000 20.000000 -0.000001
v -7.000000 20.000000 -0.000001
v -4.000000 29.000000 -0.000002
v -4.000000 25.000000 -0.000001
v -3.000000 28.000000 -0.000002
v -7.000000 28.000000 -0.000001
v -4.000000 5.000000 -0.000001
v -4.000000 1.000000 -0.000000
v -3.000000 4.000000 -0.000001
v -7.000000 4.000000 -0.000000
v -10.000000 27.000000 -0.000001
v -10.000000 25.000000 -0.000001
v -9.000000 26.000000 -0.000001
v -10.000000 31.000000 -0.000001
v -10.000000 29.000000 -0.000001
v -9.000000 30.000000 -0.000001
v -10.000000 15.000000 -0.000000
v -2.000000 15.000000 -0.000001
v -6.000000 3.000000 -0.000000
v -6.000000 1.000000 -0.000000
v -5.000000 2.000000 -0.000000
v -7.000000 2.000000 -0.000000
v -2.000000 3.000000 -0.000001
v -2.000000 1.000000 -0.000001
v -1.000000 2.000000 -0.000001
v -3.000000 2.000000 -0.000001
v -2.000000 5.000000 -0.000001
v -1.000000 6.000000 -0.000001
v -3.000000 6.000000 -0.000001
v -10.000000 3.000000 0.000000
v -10.000000 1.000000 0.000000
v -9.000000 2.000000 0.000000
v -10.000000 5.000000 -0.000000
v -9.000000 6.000000 -0.000000
v -6.000000 27.000000 -0.000001
v -6.000000 25.000000 -0.000001
v -5.000000 26.000000 -0.000001
v -7.000000 26.000000 -0.000001
v -2.000000 27.000000 -0.000002
v -2.000000 25.000000 -0.000002
v -1.000000 26.000000 -0.000002
v -3.000000 26.000000 -0.000002
v -2.000000 31.000000 -0.000002
v -2.000000 29.000000 -0.000002
v -1.000000 30.000000 -0.000002
v -3.000000 30.000000 -0.000002
v -6.000000 19.000000 -0.000001
v -6.000000 17.000000 -0.000001
v -5.000000 18.000000 -0.000001
v -7.000000 18.000000 -0.000001
v -2.000000 19.000000 -0.000001
v -2.000000 17.000000 -0.000001
v -1.000000 18.000000 -0.000001
v -3.000000 18.000000 -0.000001
v -2.000000 23.000000 -0.000002
v -2.000000 21.000000 -0.000001
v -1.000000 22.000000 -0.000002
v -3.000000 22.000000 -0.000001
v -10.000000 19.000000 -0.000001
v -10.000000 17.000000 -0.000001
v -9.000000 18.000000 -0.000001
v -10.000000 23.000000 -0.000001
v -10.000000 21.000000 -0.000001
v -9.000000 22.000000 -0.000001
v -6.000000 23.000000 -0.000001
v -6.000000 21.000000 -0.000001
v -5.000000 22.000000 -0.000001
v -7.000000 22.000000 -0.000001
v -6.000000 31.000000 -0.000002
v -6.000000 29.000000 -0.000001
v -5.000000 30.000000 -0.000002
v -7.000000 30.000000 -0.000001
v -6.000000 5.000000 -0.000000
v -5.000000 6.000000 -0.000001
v -7.000000 6.000000 -0.000000
v -6.000000 15.000000 -0.000001
v -6.000000 13.000000 -0.000001
v -5.000000 14.000000 -0.000001
v -5.000000 13.000000 -0.000001
v -5.000000 15.000000 -0.000001
v -7.000000 5.000000 -0.000000
v -5.000000 5.000000 -0.000000
v -7.000000 29.000000 -0.000001
v -5.000000 29.000000 -0.000002
v -5.000000 31.000000 -0.000002
v -7.000000 21.000000 -0.000001
v -5.000000 21.000000 -0.000001
v -5.000000 23.000000 -0.000001
v -9.000000 21.000000 -0.000001
v -9.000000 23.000000 -0.000001
v -9.000000 17.000000 -0.000001
v -9.000000 19.000000 -0.000001
v -3.000000 21.000000 -0.000001
v -1.000000 21.000000 -0.000002
v -1.000000 23.000000 -0.000002
v -3.000000 17.000000 -0.000001
v -1.000000 17.000000 -0.000001
v -1.000000 19.000000 -0.000001
v -7.000000 17.000000 -0.000001
v -5.000000 17.000000 -0.000001
v -5.000000 19.000000 -0.000001
v -3.000000 29.000000 -0.000002
v -1.000000 29.000000 -0.000002
v -1.000000 31.000000 -0.000002
v -3.000000 25.000000 -0.000002
v -1.000000 25.000000 -0.000002
v -1.000000 27.000000 -0.000002
v -7.000000 25.000000 -0.000001
v -5.000000 25.000000 -0.000001
v -5.000000 27.000000 -0.000001
v -9.000000 5.000000 -0.000000
v -9.000000 1.000000 0.000000
v -9.000000 3.000000 -0.000000
v -3.000000 5.000000 -0.000001
v -1.000000 5.000000 -0.000001
v -3.000000 1.000000 -0.000000
v -1.000000 1.000000 -0.000001
v -1.000000 3.000000 -0.000001
v -7.000000 1.000000 -0.000000
v -5.000000 1.000000 -0.000000
v -5.000000 3.000000 -0.000000
v -1.000000 15.000000 -0.000001
v -9.000000 15.000000 -0.000001
v -9.000000 29.000000 -0.000001
v -9.000000 31.000000 -0.000001
v -9.000000 25.000000 -0.000001
v -9.000000 27.000000 -0.000001
v -3.000000 15.000000 -0.000001
v -7.000000 3.000000 -0.000000
v -3.000000 3.000000 -0.000001
v -7.000000 27.000000 -0.000001
v -3.000000 27.000000 -0.000002
v -3.000000 31.000000 -0.000002
v -7.000000 19.000000 -0.000001
v -3.000000 19.000000 -0.000001
v -3.000000 23.000000 -0.000001
v -7.000000 23.000000 -0.000001
v -7.000000 31.000000 -0.000001
v -7.000000 15.000000 -0.000001
vn -0.0000 -0.0000 -1.0000
usemtl None
s off
f 254//1 72//1 3//1 108//1
f 253//1 73//1 1//1 106//1
f 252//1 74//1 4//1 113//1
f 251//1 85//1 11//1 105//1
f 250//1 86//1 12//1 116//1
f 249//1 82//1 10//1 117//1
f 248//1 89//1 5//1 99//1
f 247//1 90//1 13//1 120//1
f 246//1 81//1 9//1 121//1
f 245//1 94//1 14//1 124//1
f 244//1 80//1 8//1 125//1
f 243//1 97//1 6//1 100//1
f 242//1 126//1 47//1 98//1
f 241//1 127//1 48//1 128//1
f 240//1 129//1 17//1 69//1
f 239//1 130//1 49//1 131//1
f 238//1 132//1 19//1 71//1
f 237//1 133//1 16//1 68//1
f 236//1 134//1 46//1 96//1
f 235//1 135//1 50//1 136//1
f 234//1 110//1 29//1 137//1
f 233//1 138//1 45//1 95//1
f 232//1 139//1 51//1 140//1
f 231//1 123//1 44//1 141//1
f 230//1 142//1 52//1 143//1
f 229//1 122//1 43//1 144//1
f 228//1 145//1 42//1 93//1
f 227//1 146//1 53//1 147//1
f 226//1 148//1 54//1 149//1
f 225//1 150//1 41//1 92//1
f 224//1 151//1 55//1 152//1
f 223//1 111//1 30//1 153//1
f 222//1 154//1 40//1 91//1
f 221//1 155//1 56//1 156//1
f 220//1 119//1 39//1 157//1
f 219//1 158//1 15//1 67//1
f 218//1 159//1 57//1 160//1
f 217//1 118//1 38//1 161//1
f 216//1 162//1 37//1 88//1
f 215//1 163//1 58//1 164//1
f 214//1 112//1 31//1 165//1
f 213//1 166//1 36//1 87//1
f 212//1 167//1 59//1 168//1
f 211//1 115//1 35//1 169//1
f 210//1 170//1 23//1 75//1
f 209//1 171//1 60//1 172//1
f 208//1 114//1 34//1 173//1
f 207//1 174//1 33//1 84//1
f 206//1 175//1 61//1 176//1
f 205//1 177//1 24//1 76//1
f 204//1 178//1 62//1 179//1
f 203//1 180//1 32//1 83//1
f 202//1 181//1 63//1 182//1
f 201//1 104//1 22//1 183//1
f 200//1 184//1 25//1 77//1
f 199//1 185//1 64//1 186//1
f 198//1 103//1 21//1 187//1
f 197//1 188//1 65//1 189//1
f 196//1 102//1 20//1 190//1
f 195//1 191//1 27//1 78//1
f 194//1 192//1 66//1 193//1
f 97//1 195//1 78//1 6//1
f 193//1 66//1 191//1 195//1
f 188//1 196//1 190//1 65//1
f 46//1 125//1 196//1 188//1
f 125//1 8//1 102//1 196//1
f 122//1 197//1 189//1 43//1
f 14//1 96//1 197//1 122//1
f 96//1 46//1 188//1 197//1
f 185//1 198//1 187//1 64//1
f 41//1 121//1 198//1 185//1
f 121//1 9//1 103//1 198//1
f 118//1 199//1 186//1 38//1
f 13//1 92//1 199//1 118//1
f 92//1 41//1 185//1 199//1
f 89//1 200//1 77//1 5//1
f 38//1 186//1 200//1 89//1
f 186//1 64//1 184//1 200//1
f 181//1 201//1 183//1 63//1
f 37//1 117//1 201//1 181//1
f 117//1 10//1 104//1 201//1
f 114//1 202//1 182//1 34//1
f 12//1 88//1 202//1 114//1
f 88//1 37//1 181//1 202//1
f 85//1 203//1 83//1 11//1
f 34//1 182//1 203//1 85//1
f 182//1 63//1 180//1 203//1
f 104//1 204//1 179//1 22//1
f 10//1 84//1 204//1 104//1
f 84//1 33//1 178//1 204//1
f 74//1 205//1 76//1 4//1
f 22//1 179//1 205//1 74//1
f 179//1 62//1 177//1 205//1
f 112//1 206//1 176//1 31//1
f 3//1 71//1 206//1 112//1
f 71//1 19//1 175//1 206//1
f 82//1 207//1 84//1 10//1
f 31//1 176//1 207//1 82//1
f 176//1 61//1 174//1 207//1
f 171//1 208//1 173//1 60//1
f 36//1 116//1 208//1 171//1
f 116//1 12//1 114//1 208//1
f 87//1 36//1 171//1 209//1
f 172//1 60//1 170//1 210//1
f 167//1 211//1 169//1 59//1
f 16//1 100//1 211//1 167//1
f 100//1 6//1 115//1 211//1
f 68//1 16//1 167//1 212//1
f 168//1 59//1 166//1 213//1
f 163//1 214//1 165//1 58//1
f 27//1 108//1 214//1 163//1
f 108//1 3//1 112//1 214//1
f 115//1 215//1 164//1 35//1
f 6//1 78//1 215//1 115//1
f 78//1 27//1 163//1 215//1
f 86//1 216//1 88//1 12//1
f 35//1 164//1 216//1 86//1
f 164//1 58//1 162//1 216//1
f 159//1 217//1 161//1 57//1
f 40//1 120//1 217//1 159//1
f 120//1 13//1 118//1 217//1
f 91//1 40//1 159//1 218//1
f 160//1 57//1 158//1 219//1
f 155//1 220//1 157//1 56//1
f 23//1 105//1 220//1 155//1
f 105//1 11//1 119//1 220//1
f 75//1 23//1 155//1 221//1
f 156//1 56//1 154//1 222//1
f 151//1 223//1 153//1 55//1
f 32//1 113//1 223//1 151//1
f 113//1 4//1 111//1 223//1
f 119//1 224//1 152//1 39//1
f 11//1 83//1 224//1 119//1
f 83//1 32//1 151//1 224//1
f 90//1 225//1 92//1 13//1
f 39//1 152//1 225//1 90//1
f 152//1 55//1 150//1 225//1
f 102//1 226//1 149//1 20//1
f 8//1 93//1 226//1 102//1
f 93//1 42//1 148//1 226//1
f 110//1 227//1 147//1 29//1
f 2//1 107//1 227//1 110//1
f 107//1 26//1 146//1 227//1
f 80//1 228//1 93//1 8//1
f 29//1 147//1 228//1 80//1
f 147//1 53//1 145//1 228//1
f 142//1 229//1 144//1 52//1
f 45//1 124//1 229//1 142//1
f 124//1 14//1 122//1 229//1
f 95//1 45//1 142//1 230//1
f 139//1 231//1 141//1 51//1
f 28//1 79//1 231//1 139//1
f 79//1 7//1 123//1 231//1
f 109//1 28//1 139//1 232//1
f 140//1 51//1 138//1 233//1
f 135//1 234//1 137//1 50//1
f 18//1 70//1 234//1 135//1
f 70//1 2//1 110//1 234//1
f 123//1 235//1 136//1 44//1
f 7//1 101//1 235//1 123//1
f 101//1 18//1 135//1 235//1
f 94//1 236//1 96//1 14//1
f 44//1 136//1 236//1 94//1
f 136//1 50//1 134//1 236//1
f 72//1 238//1 71//1 3//1
f 103//1 239//1 131//1 21//1
f 9//1 98//1 239//1 103//1
f 98//1 47//1 130//1 239//1
f 73//1 240//1 69//1 1//1
f 21//1 131//1 240//1 73//1
f 131//1 49//1 129//1 240//1
f 111//1 241//1 128//1 30//1
f 4//1 76//1 241//1 111//1
f 76//1 24//1 127//1 241//1
f 81//1 242//1 98//1 9//1
f 30//1 128//1 242//1 81//1
f 128//1 48//1 126//1 242//1
f 133//1 243//1 100//1 16//1
f 134//1 244//1 125//1 46//1
f 50//1 137//1 244//1 134//1
f 137//1 29//1 80//1 244//1
f 138//1 245//1 124//1 45//1
f 51//1 141//1 245//1 138//1
f 141//1 44//1 94//1 245//1
f 150//1 246//1 121//1 41//1
f 55//1 153//1 246//1 150//1
f 153//1 30//1 81//1 246//1
f 154//1 247//1 120//1 40//1
f 56//1 157//1 247//1 154//1
f 157//1 39//1 90//1 247//1
f 158//1 248//1 99//1 15//1
f 57//1 161//1 248//1 158//1
f 161//1 38//1 89//1 248//1
f 162//1 249//1 117//1 37//1
f 58//1 165//1 249//1 162//1
f 165//1 31//1 82//1 249//1
f 166//1 250//1 116//1 36//1
f 59//1 169//1 250//1 166//1
f 169//1 35//1 86//1 250//1
f 170//1 251//1 105//1 23//1
f 60//1 173//1 251//1 170//1
f 173//1 34//1 85//1 251//1
f 180//1 252//1 113//1 32//1
f 63//1 183//1 252//1 180//1
f 183//1 22//1 74//1 252//1
f 184//1 253//1 106//1 25//1
f 64//1 187//1 253//1 184//1
f 187//1 21//1 73//1 253//1
f 191//1 254//1 108//1 27//1
