# Blender v2.79 (sub 0) OBJ File: ''
# www.blender.org
mtllib hall.mtl
o Plane
v 0.000000 0.000000 -0.000001
v 0.000000 32.000000 -0.000002
v 0.000000 16.000000 -0.000001
v -8.000000 32.000000 -0.000001
v 0.000000 24.000000 -0.000002
v -8.000000 0.000000 0.000000
v -8.000000 16.000000 -0.000001
v -8.000000 24.000000 -0.000001
v 0.000000 4.000000 -0.000001
v -4.000000 32.000000 -0.000002
v 0.000000 20.000000 -0.000002
v -4.000000 16.000000 -0.000001
v 0.000000 28.000000 -0.000002
v -4.000000 0.000000 -0.000000
v -8.000000 4.000000 -0.000000
v -8.000000 28.000000 -0.000001
v -8.000000 20.000000 -0.000001
v -4.000000 24.000000 -0.000001
v -4.000000 20.000000 -0.000001
v -4.000000 28.000000 -0.000002
v -4.000000 4.000000 -0.000001
v 0.000000 2.000000 -0.000001
v -2.000000 32.000000 -0.000002
v 0.000000 18.000000 -0.000001
v -2.000000 16.000000 -0.000001
v -10.000000 32.000000 -0.000001
v 0.000000 26.000000 -0.000002
v -6.000000 0.000000 -0.000000
v -10.000000 16.000000 -0.000001
v -8.000000 6.000000 -0.000000
v -8.000000 30.000000 -0.000001
v -8.000000 22.000000 -0.000001
v -2.000000 24.000000 -0.000002
v -10.000000 24.000000 -0.000001
v 0.000000 6.000000 -0.000001
v -6.000000 32.000000 -0.000002
v 0.000000 22.000000 -0.000002
v -10.000000 0.000000 0.000000
v -6.000000 16.000000 -0.000001
v 0.000000 30.000000 -0.000002
v -2.000000 0.000000 -0.000001
v -8.000000 2.000000 -0.000000
v -8.000000 26.000000 -0.000001
v -8.000000 18.000000 -0.000001
v -6.000000 24.000000 -0.000001
v -10.000000 20.000000 -0.000001
v -4.000000 22.000000 -0.000001
v -4.000000 18.000000 -0.000001
v -2.000000 20.000000 -0.000001
v -6.000000 20.000000 -0.000001
v -4.000000 30.000000 -0.000002
v -4.000000 26.000000 -0.000001
v -2.000000 28.000000 -0.000002
v -6.000000 28.000000 -0.000001
v -10.000000 4.000000 0.000000
v -4.000000 6.000000 -0.000001
v -4.000000 2.000000 -0.000000
v -2.000000 4.000000 -0.000001
v -6.000000 4.000000 -0.000000
v -10.000000 28.000000 -0.000001
v -10.000000 26.000000 -0.000001
v -10.000000 30.000000 -0.000001
v -6.000000 2.000000 -0.000000
v -2.000000 2.000000 -0.000001
v -2.000000 6.000000 -0.000001
v -10.000000 2.000000 0.000000
v -10.000000 6.000000 -0.000000
v -6.000000 26.000000 -0.000001
v -2.000000 26.000000 -0.000002
v -2.000000 30.000000 -0.000002
v -6.000000 18.000000 -0.000001
v -2.000000 18.000000 -0.000001
v -2.000000 22.000000 -0.000001
v -10.000000 18.000000 -0.000001
v -10.000000 22.000000 -0.000001
v -6.000000 22.000000 -0.000001
v -6.000000 30.000000 -0.000001
v -6.000000 6.000000 -0.000000
v -6.000000 14.000000 -0.000001
v 0.000000 1.000000 -0.000001
v -1.000000 32.000000 -0.000002
v 0.000000 17.000000 -0.000001
v -1.000000 16.000000 -0.000001
v -9.000000 32.000000 -0.000001
v 0.000000 25.000000 -0.000002
v -7.000000 0.000000 -0.000000
v -9.000000 16.000000 -0.000001
v -8.000000 15.000000 -0.000001
v -8.000000 31.000000 -0.000001
v -8.000000 23.000000 -0.000001
v -1.000000 24.000000 -0.000002
v -9.000000 24.000000 -0.000001
v 0.000000 5.000000 -0.000001
v -5.000000 32.000000 -0.000002
v 0.000000 21.000000 -0.000002
v -5.000000 16.000000 -0.000001
v 0.000000 29.000000 -0.000002
v -3.000000 0.000000 -0.000000
v -8.000000 3.000000 -0.000000
v -8.000000 27.000000 -0.000001
v -8.000000 19.000000 -0.000001
v -5.000000 24.000000 -0.000001
v -9.000000 20.000000 -0.000001
v -4.000000 23.000000 -0.000001
v -4.000000 19.000000 -0.000001
v -1.000000 20.000000 -0.000001
v -5.000000 20.000000 -0.000001
v -4.000000 31.000000 -0.000002
v -4.000000 27.000000 -0.000002
v -1.000000 28.000000 -0.000002
v -5.000000 28.000000 -0.000001
v -9.000000 4.000000 -0.000000
v -4.000000 3.000000 -0.000000
v -1.000000 4.000000 -0.000001
v -5.000000 4.000000 -0.000000
v -4.000000 15.000000 -0.000001
v -9.000000 28.000000 -0.000001
v 0.000000 3.000000 -0.000001
v -3.000000 32.000000 -0.000002
v 0.000000 19.000000 -0.000002
v -3.000000 16.000000 -0.000001
v 0.000000 27.000000 -0.000002
v -5.000000 0.000000 -0.000000
v -8.000000 5.000000 -0.000000
v -8.000000 29.000000 -0.000001
v -8.000000 21.000000 -0.000001
v -3.000000 24.000000 -0.000001
v -7.000000 32.000000 -0.000001
v 0.000000 23.000000 -0.000002
v -9.000000 0.000000 0.000000
v -7.000000 16.000000 -0.000001
v 0.000000 15.000000 -0.000001
v 0.000000 31.000000 -0.000002
v -1.000000 0.000000 -0.000001
v -8.000000 1.000000 -0.000000
v -8.000000 25.000000 -0.000001
v -8.000000 17.000000 -0.000001
v -7.000000 24.000000 -0.000001
v -4.000000 21.000000 -0.000001
v -4.000000 17.000000 -0.000001
v -3.000000 20.000000 -0.000001
v -7.000000 20.000000 -0.000001
v -4.000000 29.000000 -0.000002
v -4.000000 25.000000 -0.000001
v -3.000000 28.000000 -0.000002
v -7.000000 28.000000 -0.000001
v -4.000000 5.000000 -0.000001
v -4.000000 1.000000 -0.000000
v -3.000000 4.000000 -0.000001
v -7.000000 4.000000 -0.000000
v -10.000000 27.000000 -0.000001
v -10.000000 25.000000 -0.000001
v -9.000000 26.000000 -0.000001
v -10.000000 31.000000 -0.000001
v -10.000000 29.000000 -0.000001
v -9.000000 30.000000 -0.000001
v -10.000000 15.000000 -0.000000
v -2.000000 15.000000 -0.000001
v -6.000000 3.000000 -0.000000
v -6.000000 1.000000 -0.000000
v -5.000000 2.000000 -0.000000
v -7.000000 2.000000 -0.000000
v -2.000000 3.000000 -0.000001
v -2.000000 1.000000 -0.000001
v -1.000000 2.000000 -0.000001
v -3.000000 2.000000 -0.000001
v -2.000000 5.000000 -0.000001
v -1.000000 6.000000 -0.000001
v -3.000000 6.000000 -0.000001
v -10.000000 3.000000 0.000000
v -10.000000 1.000000 0.000000
v -9.000000 2.000000 0.000000
v -10.000000 5.000000 -0.000000
v -9.000000 6.000000 -0.000000
v -6.000000 27.000000 -0.000001
v -6.000000 25.000000 -0.000001
v -5.000000 26.000000 -0.000001
v -7.000000 26.000000 -0.000001
v -2.000000 27.000000 -0.000002
v -2.000000 25.000000 -0.000002
v -1.000000 26.000000 -0.000002
v -3.000000 26.000000 -0.000002
v -2.000000 31.000000 -0.000002
v -2.000000 29.000000 -0.000002
v -1.000000 30.000000 -0.000002
v -3.000000 30.000000 -0.000002
v -6.000000 19.000000 -0.000001
v -6.000000 17.000000 -0.000001
v -5.000000 18.000000 -0.000001
v -7.000000 18.000000 -0.000001
v -2.000000 19.000000 -0.000001
v -2.000000 17.000000 -0.000001
v -1.000000 18.000000 -0.000001
v -3.000000 18.000000 -0.000001
v -2.000000 23.000000 -0.000002
v -2.000000 21.000000 -0.000001
v -1.000000 22.000000 -0.000002
v -3.000000 22.000000 -0.000001
v -10.000000 19.000000 -0.000001
v -10.000000 17.000000 -0.000001
v -9.000000 18.000000 -0.000001
v -10.000000 23.000000 -0.000001
v -10.000000 21.000000 -0.000001
v -9.000000 22.000000 -0.000001
v -6.000000 23.000000 -0.000001
v -6.000000 21.000000 -0.000001
v -5.000000 22.000000 -0.000001
v -7.000000 22.000000 -0.000001
v -6.000000 31.000000 -0.000002
v -6.000000 29.000000 -0.000001
v -5.000000 30.000000 -0.000002
v -7.000000 30.000000 -0.000001
v -6.000000 5.000000 -0.000000
v -5.000000 6.000000 -0.000001
v -7.000000 6.000000 -0.000000
v -6.000000 15.000000 -0.000001
v -6.000000 13.000000 -0.000001
v -5.000000 14.000000 -0.000001
v -5.000000 13.000000 -0.000001
v -5.000000 15.000000 -0.000001
v -7.000000 5.000000 -0.000000
v -5.000000 5.000000 -0.000000
v -7.000000 29.000000 -0.000001
v -5.000000 29.000000 -0.000002
v -5.000000 31.000000 -0.000002
v -7.000000 21.000000 -0.000001
v -5.000000 21.000000 -0.000001
v -5.000000 23.000000 -0.000001
v -9.000000 21.000000 -0.000001
v -9.000000 23.000000 -0.000001
v -9.000000 17.000000 -0.000001
v -9.000000 19.000000 -0.000001
v -3.000000 21.000000 -0.000001
v -1.000000 21.000000 -0.000002
v -1.000000 23.000000 -0.000002
v -3.000000 17.000000 -0.000001
v -1.000000 17.000000 -0.000001
v -1.000000 19.000000 -0.000001
v -7.000000 17.000000 -0.000001
v -5.000000 17.000000 -0.000001
v -5.000000 19.000000 -0.000001
v -3.000000 29.000000 -0.000002
v -1.000000 29.000000 -0.000002
v -1.000000 31.000000 -0.000002
v -3.000000 25.000000 -0.000002
v -1.000000 25.000000 -0.000002
v -1.000000 27.000000 -0.000002
v -7.000000 25.000000 -0.000001
v -5.000000 25.000000 -0.000001
v -5.000000 27.000000 -0.000001
v -9.000000 5.000000 -0.000000
v -9.000000 1.000000 0.000000
v -9.000000 3.000000 -0.000000
v -3.000000 5.000000 -0.000001
v -1.000000 5.000000 -0.000001
v -3.000000 1.000000 -0.000000
v -1.000000 1.000000 -0.000001
v -1.000000 3.000000 -0.000001
v -7.000000 1.000000 -0.000000
v -5.000000 1.000000 -0.000000
v -5.000000 3.000000 -0.000000
v -1.000000 15.000000 -0.000001
v -9.000000 15.000000 -0.000001
v -9.000000 29.000000 -0.000001
v -9.000000 31.000000 -0.000001
v -9.000000 25.000000 -0.000001
v -9.000000 27.000000 -0.000001
v -3.000000 15.000000 -0.000001
v -7.000000 3.000000 -0.000000
v -3.000000 3.000000 -0.000001
v -7.000000 27.000000 -0.000001
v -3.000000 27.000000 -0.000002
v -3.000000 31.000000 -0.000002
v -7.000000 19.000000 -0.000001
v -3.000000 19.000000 -0.000001
v -3.000000 23.000000 -0.000001
v -7.000000 23.000000 -0.000001
v -7.000000 31.000000 -0.000001
v -7.000000 15.000000 -0.000001
vn -0.0000 -0.0000 -1.0000
usemtl None
s off
f 279//1 88//1 7//1 131//1
f 278//1 89//1 4//1 128//1
f 277//1 90//1 8//1 138//1
f 276//1 104//1 18//1 127//1
f 275//1 105//1 19//1 141//1
f 274//1 101//1 17//1 142//1
f 273//1 108//1 10//1 119//1
f 272//1 109//1 20//1 145//1
f 271//1 100//1 16//1 146//1
f 270//1 113//1 21//1 149//1
f 269//1 99//1 15//1 150//1
f 268//1 116//1 12//1 121//1
f 267//1 151//1 60//1 117//1
f 266//1 152//1 61//1 153//1
f 265//1 154//1 26//1 84//1
f 264//1 155//1 62//1 156//1
f 263//1 157//1 29//1 87//1
f 262//1 158//1 25//1 83//1
f 261//1 159//1 59//1 115//1
f 260//1 160//1 63//1 161//1
f 259//1 135//1 42//1 162//1
f 258//1 163//1 58//1 114//1
f 257//1 164//1 64//1 165//1
f 256//1 148//1 57//1 166//1
f 255//1 167//1 65//1 168//1
f 254//1 147//1 56//1 169//1
f 253//1 170//1 55//1 112//1
f 252//1 171//1 66//1 172//1
f 251//1 173//1 67//1 174//1
f 250//1 175//1 54//1 111//1
f 249//1 176//1 68//1 177//1
f 248//1 136//1 43//1 178//1
f 247//1 179//1 53//1 110//1
f 246//1 180//1 69//1 181//1
f 245//1 144//1 52//1 182//1
f 244//1 183//1 23//1 81//1
f 243//1 184//1 70//1 185//1
f 242//1 143//1 51//1 186//1
f 241//1 187//1 50//1 107//1
f 240//1 188//1 71//1 189//1
f 239//1 137//1 44//1 190//1
f 238//1 191//1 49//1 106//1
f 237//1 192//1 72//1 193//1
f 236//1 140//1 48//1 194//1
f 235//1 195//1 33//1 91//1
f 234//1 196//1 73//1 197//1
f 233//1 139//1 47//1 198//1
f 232//1 199//1 46//1 103//1
f 231//1 200//1 74//1 201//1
f 230//1 202//1 34//1 92//1
f 229//1 203//1 75//1 204//1
f 228//1 205//1 45//1 102//1
f 227//1 206//1 76//1 207//1
f 226//1 126//1 32//1 208//1
f 225//1 209//1 36//1 94//1
f 224//1 210//1 77//1 211//1
f 223//1 125//1 31//1 212//1
f 222//1 213//1 78//1 214//1
f 221//1 124//1 30//1 215//1
f 220//1 216//1 39//1 96//1
f 219//1 217//1 79//1 218//1
f 116//1 220//1 96//1 12//1
f 218//1 79//1 216//1 220//1
f 213//1 221//1 215//1 78//1
f 59//1 150//1 221//1 213//1
f 150//1 15//1 124//1 221//1
f 147//1 222//1 214//1 56//1
f 21//1 115//1 222//1 147//1
f 115//1 59//1 213//1 222//1
f 210//1 223//1 212//1 77//1
f 54//1 146//1 223//1 210//1
f 146//1 16//1 125//1 223//1
f 143//1 224//1 211//1 51//1
f 20//1 111//1 224//1 143//1
f 111//1 54//1 210//1 224//1
f 108//1 225//1 94//1 10//1
f 51//1 211//1 225//1 108//1
f 211//1 77//1 209//1 225//1
f 206//1 226//1 208//1 76//1
f 50//1 142//1 226//1 206//1
f 142//1 17//1 126//1 226//1
f 139//1 227//1 207//1 47//1
f 19//1 107//1 227//1 139//1
f 107//1 50//1 206//1 227//1
f 104//1 228//1 102//1 18//1
f 47//1 207//1 228//1 104//1
f 207//1 76//1 205//1 228//1
f 126//1 229//1 204//1 32//1
f 17//1 103//1 229//1 126//1
f 103//1 46//1 203//1 229//1
f 90//1 230//1 92//1 8//1
f 32//1 204//1 230//1 90//1
f 204//1 75//1 202//1 230//1
f 137//1 231//1 201//1 44//1
f 7//1 87//1 231//1 137//1
f 87//1 29//1 200//1 231//1
f 101//1 232//1 103//1 17//1
f 44//1 201//1 232//1 101//1
f 201//1 74//1 199//1 232//1
f 196//1 233//1 198//1 73//1
f 49//1 141//1 233//1 196//1
f 141//1 19//1 139//1 233//1
f 95//1 234//1 197//1 37//1
f 11//1 106//1 234//1 95//1
f 106//1 49//1 196//1 234//1
f 129//1 235//1 91//1 5//1
f 37//1 197//1 235//1 129//1
f 197//1 73//1 195//1 235//1
f 192//1 236//1 194//1 72//1
f 25//1 121//1 236//1 192//1
f 121//1 12//1 140//1 236//1
f 82//1 237//1 193//1 24//1
f 3//1 83//1 237//1 82//1
f 83//1 25//1 192//1 237//1
f 120//1 238//1 106//1 11//1
f 24//1 193//1 238//1 120//1
f 193//1 72//1 191//1 238//1
f 188//1 239//1 190//1 71//1
f 39//1 131//1 239//1 188//1
f 131//1 7//1 137//1 239//1
f 140//1 240//1 189//1 48//1
f 12//1 96//1 240//1 140//1
f 96//1 39//1 188//1 240//1
f 105//1 241//1 107//1 19//1
f 48//1 189//1 241//1 105//1
f 189//1 71//1 187//1 241//1
f 184//1 242//1 186//1 70//1
f 53//1 145//1 242//1 184//1
f 145//1 20//1 143//1 242//1
f 97//1 243//1 185//1 40//1
f 13//1 110//1 243//1 97//1
f 110//1 53//1 184//1 243//1
f 133//1 244//1 81//1 2//1
f 40//1 185//1 244//1 133//1
f 185//1 70//1 183//1 244//1
f 180//1 245//1 182//1 69//1
f 33//1 127//1 245//1 180//1
f 127//1 18//1 144//1 245//1
f 85//1 246//1 181//1 27//1
f 5//1 91//1 246//1 85//1
f 91//1 33//1 180//1 246//1
f 122//1 247//1 110//1 13//1
f 27//1 181//1 247//1 122//1
f 181//1 69//1 179//1 247//1
f 176//1 248//1 178//1 68//1
f 45//1 138//1 248//1 176//1
f 138//1 8//1 136//1 248//1
f 144//1 249//1 177//1 52//1
f 18//1 102//1 249//1 144//1
f 102//1 45//1 176//1 249//1
f 109//1 250//1 111//1 20//1
f 52//1 177//1 250//1 109//1
f 177//1 68//1 175//1 250//1
f 124//1 251//1 174//1 30//1
f 15//1 112//1 251//1 124//1
f 112//1 55//1 173//1 251//1
f 135//1 252//1 172//1 42//1
f 6//1 130//1 252//1 135//1
f 130//1 38//1 171//1 252//1
f 99//1 253//1 112//1 15//1
f 42//1 172//1 253//1 99//1
f 172//1 66//1 170//1 253//1
f 167//1 254//1 169//1 65//1
f 58//1 149//1 254//1 167//1
f 149//1 21//1 147//1 254//1
f 93//1 255//1 168//1 35//1
f 9//1 114//1 255//1 93//1
f 114//1 58//1 167//1 255//1
f 164//1 256//1 166//1 64//1
f 41//1 98//1 256//1 164//1
f 98//1 14//1 148//1 256//1
f 80//1 257//1 165//1 22//1
f 1//1 134//1 257//1 80//1
f 134//1 41//1 164//1 257//1
f 118//1 258//1 114//1 9//1
f 22//1 165//1 258//1 118//1
f 165//1 64//1 163//1 258//1
f 160//1 259//1 162//1 63//1
f 28//1 86//1 259//1 160//1
f 86//1 6//1 135//1 259//1
f 148//1 260//1 161//1 57//1
f 14//1 123//1 260//1 148//1
f 123//1 28//1 160//1 260//1
f 113//1 261//1 115//1 21//1
f 57//1 161//1 261//1 113//1
f 161//1 63//1 159//1 261//1
f 132//1 262//1 83//1 3//1
f 88//1 263//1 87//1 7//1
f 125//1 264//1 156//1 31//1
f 16//1 117//1 264//1 125//1
f 117//1 60//1 155//1 264//1
f 89//1 265//1 84//1 4//1
f 31//1 156//1 265//1 89//1
f 156//1 62//1 154//1 265//1
f 136//1 266//1 153//1 43//1
f 8//1 92//1 266//1 136//1
f 92//1 34//1 152//1 266//1
f 100//1 267//1 117//1 16//1
f 43//1 153//1 267//1 100//1
f 153//1 61//1 151//1 267//1
f 158//1 268//1 121//1 25//1
f 159//1 269//1 150//1 59//1
f 63//1 162//1 269//1 159//1
f 162//1 42//1 99//1 269//1
f 163//1 270//1 149//1 58//1
f 64//1 166//1 270//1 163//1
f 166//1 57//1 113//1 270//1
f 175//1 271//1 146//1 54//1
f 68//1 178//1 271//1 175//1
f 178//1 43//1 100//1 271//1
f 179//1 272//1 145//1 53//1
f 69//1 182//1 272//1 179//1
f 182//1 52//1 109//1 272//1
f 183//1 273//1 119//1 23//1
f 70//1 186//1 273//1 183//1
f 186//1 51//1 108//1 273//1
f 187//1 274//1 142//1 50//1
f 71//1 190//1 274//1 187//1
f 190//1 44//1 101//1 274//1
f 191//1 275//1 141//1 49//1
f 72//1 194//1 275//1 191//1
f 194//1 48//1 105//1 275//1
f 195//1 276//1 127//1 33//1
f 73//1 198//1 276//1 195//1
f 198//1 47//1 104//1 276//1
f 205//1 277//1 138//1 45//1
f 76//1 208//1 277//1 205//1
f 208//1 32//1 90//1 277//1
f 209//1 278//1 128//1 36//1
f 77//1 212//1 278//1 209//1
f 212//1 31//1 89//1 278//1
f 216//1 279//1 131//1 39//1
