# Blender v2.79 (sub 0) OBJ File: ''
# www.blender.org
mtllib plattaform.mtl
o Plane
v 0.000000 16.000000 -0.000001
v -16.000000 16.000000 0.000000
v -8.000000 0.000000 0.000000
v -8.000000 16.000000 -0.000001
v -8.000000 8.000000 -0.000000
v -12.000000 0.000000 0.000000
v -4.000000 16.000000 -0.000001
v -20.000000 16.000000 0.000000
v -12.000000 16.000000 -0.000000
v -8.000000 12.000000 -0.000001
v -8.000000 4.000000 -0.000000
v -12.000000 8.000000 0.000000
v -12.000000 4.000000 0.000000
v -4.000000 12.000000 -0.000001
v -12.000000 12.000000 -0.000000
v -14.000000 0.000000 0.000001
v -2.000000 16.000000 -0.000001
v -18.000000 16.000000 0.000000
v -6.000000 0.000000 -0.000000
v -10.000000 16.000000 -0.000001
v -8.000000 14.000000 -0.000001
v -8.000000 6.000000 -0.000000
v -10.000000 8.000000 -0.000000
v -10.000000 0.000000 0.000000
v -6.000000 16.000000 -0.000001
v 0.000000 14.000000 -0.000001
v -14.000000 16.000000 -0.000000
v -8.000000 10.000000 -0.000000
v -8.000000 2.000000 -0.000000
v -6.000000 8.000000 -0.000001
v -14.000000 8.000000 0.000000
v -12.000000 6.000000 0.000000
v -12.000000 2.000000 0.000000
v -10.000000 4.000000 0.000000
v -14.000000 4.000000 0.000000
v -6.000000 4.000000 -0.000000
v -4.000000 14.000000 -0.000001
v -4.000000 10.000000 -0.000001
v -2.000000 12.000000 -0.000001
v -6.000000 12.000000 -0.000001
v -12.000000 14.000000 -0.000000
v -12.000000 10.000000 -0.000000
v -10.000000 12.000000 -0.000000
v -14.000000 12.000000 0.000000
v -14.000000 10.000000 0.000000
v -10.000000 10.000000 -0.000000
v -10.000000 14.000000 -0.000000
v -6.000000 10.000000 -0.000001
v -2.000000 14.000000 -0.000001
v -6.000000 2.000000 -0.000000
v -14.000000 2.000000 0.000000
v -10.000000 2.000000 0.000000
v -10.000000 6.000000 -0.000000
v -14.000000 6.000000 0.000000
v -6.000000 6.000000 -0.000000
v -6.000000 14.000000 -0.000001
v -14.000000 14.000000 -0.000000
v -16.000000 15.000000 0.000000
v -1.000000 16.000000 -0.000001
v -17.000000 16.000000 0.000000
v -7.000000 0.000000 -0.000000
v -9.000000 16.000000 -0.000001
v -8.000000 15.000000 -0.000001
v -8.000000 7.000000 -0.000000
v -9.000000 8.000000 -0.000000
v -11.000000 0.000000 0.000000
v -5.000000 16.000000 -0.000001
v -13.000000 16.000000 -0.000000
v -8.000000 11.000000 -0.000000
v -8.000000 3.000000 -0.000000
v -13.000000 8.000000 0.000000
v -12.000000 7.000000 0.000000
v -12.000000 3.000000 0.000000
v -9.000000 4.000000 -0.000000
v -13.000000 4.000000 0.000000
v -4.000000 15.000000 -0.000001
v -4.000000 11.000000 -0.000001
v -5.000000 12.000000 -0.000001
v -20.000000 15.000000 0.000000
v -12.000000 15.000000 -0.000000
v -12.000000 11.000000 -0.000000
v -9.000000 12.000000 -0.000000
v -13.000000 12.000000 -0.000000
v -13.000000 0.000000 0.000000
v -3.000000 16.000000 -0.000001
v -19.000000 16.000000 0.000000
v -11.000000 16.000000 -0.000000
v -8.000000 13.000000 -0.000001
v -8.000000 5.000000 -0.000000
v -11.000000 8.000000 -0.000000
v -9.000000 0.000000 0.000000
v -7.000000 16.000000 -0.000001
v 0.000000 15.000000 -0.000001
v -15.000000 16.000000 -0.000000
v -8.000000 9.000000 -0.000000
v -8.000000 1.000000 -0.000000
v -7.000000 8.000000 -0.000000
v -12.000000 5.000000 0.000000
v -12.000000 1.000000 0.000000
v -11.000000 4.000000 0.000000
v -7.000000 4.000000 -0.000000
v -4.000000 13.000000 -0.000001
v -4.000000 9.000000 -0.000001
v -3.000000 12.000000 -0.000001
v -7.000000 12.000000 -0.000001
v -12.000000 13.000000 -0.000000
v -12.000000 9.000000 -0.000000
v -11.000000 12.000000 -0.000000
v -14.000000 11.000000 0.000000
v -14.000000 9.000000 0.000000
v -13.000000 10.000000 0.000000
v -10.000000 11.000000 -0.000000
v -10.000000 9.000000 -0.000000
v -9.000000 10.000000 -0.000000
v -11.000000 10.000000 -0.000000
v -10.000000 15.000000 -0.000000
v -10.000000 13.000000 -0.000000
v -9.000000 14.000000 -0.000001
v -11.000000 14.000000 -0.000000
v -18.000000 15.000000 0.000000
v -6.000000 11.000000 -0.000001
v -6.000000 9.000000 -0.000001
v -5.000000 10.000000 -0.000001
v -7.000000 10.000000 -0.000001
v -2.000000 15.000000 -0.000001
v -2.000000 13.000000 -0.000001
v -1.000000 14.000000 -0.000001
v -3.000000 14.000000 -0.000001
v -6.000000 3.000000 -0.000000
v -6.000000 1.000000 -0.000000
v -7.000000 2.000000 -0.000000
v -14.000000 3.000000 0.000000
v -14.000000 1.000000 0.000000
v -13.000000 2.000000 0.000000
v -10.000000 3.000000 0.000000
v -10.000000 1.000000 0.000000
v -9.000000 2.000000 0.000000
v -11.000000 2.000000 0.000000
v -10.000000 7.000000 -0.000000
v -10.000000 5.000000 -0.000000
v -9.000000 6.000000 -0.000000
v -11.000000 6.000000 0.000000
v -14.000000 7.000000 0.000000
v -14.000000 5.000000 0.000000
v -13.000000 6.000000 0.000000
v -6.000000 7.000000 -0.000000
v -6.000000 5.000000 -0.000000
v -7.000000 6.000000 -0.000000
v -6.000000 15.000000 -0.000001
v -6.000000 13.000000 -0.000001
v -5.000000 14.000000 -0.000001
v -7.000000 14.000000 -0.000001
v -14.000000 15.000000 -0.000000
v -14.000000 13.000000 -0.000000
v -13.000000 14.000000 -0.000000
v -13.000000 13.000000 -0.000000
v -13.000000 15.000000 -0.000000
v -7.000000 13.000000 -0.000001
v -5.000000 13.000000 -0.000001
v -5.000000 15.000000 -0.000001
v -7.000000 5.000000 -0.000000
v -13.000000 5.000000 0.000000
v -13.000000 7.000000 0.000000
v -11.000000 5.000000 0.000000
v -9.000000 5.000000 -0.000000
v -9.000000 7.000000 -0.000000
v -11.000000 1.000000 0.000000
v -9.000000 1.000000 0.000000
v -9.000000 3.000000 -0.000000
v -13.000000 1.000000 0.000000
v -13.000000 3.000000 0.000000
v -7.000000 1.000000 -0.000000
v -3.000000 13.000000 -0.000001
v -1.000000 15.000000 -0.000001
v -7.000000 9.000000 -0.000000
v -5.000000 9.000000 -0.000001
v -5.000000 11.000000 -0.000001
v -17.000000 15.000000 0.000000
v -11.000000 13.000000 -0.000000
v -9.000000 13.000000 -0.000000
v -9.000000 15.000000 -0.000001
v -11.000000 9.000000 -0.000000
v -9.000000 9.000000 -0.000000
v -9.000000 11.000000 -0.000000
v -13.000000 9.000000 0.000000
v -13.000000 11.000000 -0.000000
v -11.000000 11.000000 -0.000000
v -11.000000 15.000000 -0.000000
v -19.000000 15.000000 0.000000
v -7.000000 11.000000 -0.000001
v -3.000000 15.000000 -0.000001
v -7.000000 3.000000 -0.000000
v -11.000000 3.000000 0.000000
v -11.000000 7.000000 -0.000000
v -7.000000 7.000000 -0.000000
v -7.000000 15.000000 -0.000001
v -15.000000 15.000000 -0.000000
vn -0.0000 -0.0000 -1.0000
usemtl None
s off
f 197//1 58//1 2//1 94//1
f 196//1 63//1 4//1 92//1
f 195//1 64//1 5//1 97//1
f 194//1 72//1 12//1 90//1
f 193//1 73//1 13//1 100//1
f 192//1 70//1 11//1 101//1
f 191//1 76//1 7//1 85//1
f 190//1 69//1 10//1 105//1
f 189//1 79//1 8//1 86//1
f 188//1 80//1 9//1 87//1
f 187//1 81//1 15//1 108//1
f 186//1 109//1 44//1 83//1
f 185//1 110//1 45//1 111//1
f 184//1 112//1 43//1 82//1
f 183//1 113//1 46//1 114//1
f 182//1 107//1 42//1 115//1
f 181//1 116//1 20//1 62//1
f 180//1 117//1 47//1 118//1
f 179//1 106//1 41//1 119//1
f 178//1 120//1 18//1 60//1
f 177//1 121//1 40//1 78//1
f 176//1 122//1 48//1 123//1
f 175//1 95//1 28//1 124//1
f 174//1 125//1 17//1 59//1
f 173//1 102//1 37//1 128//1
f 172//1 96//1 29//1 131//1
f 171//1 132//1 35//1 75//1
f 170//1 133//1 51//1 134//1
f 169//1 135//1 34//1 74//1
f 168//1 136//1 52//1 137//1
f 167//1 99//1 33//1 138//1
f 166//1 139//1 23//1 65//1
f 165//1 140//1 53//1 141//1
f 164//1 98//1 32//1 142//1
f 163//1 143//1 31//1 71//1
f 162//1 144//1 54//1 145//1
f 161//1 89//1 22//1 148//1
f 160//1 149//1 25//1 67//1
f 159//1 150//1 56//1 151//1
f 158//1 88//1 21//1 152//1
f 157//1 153//1 27//1 68//1
f 156//1 154//1 57//1 155//1
f 106//1 156//1 155//1 41//1
f 15//1 83//1 156//1 106//1
f 83//1 44//1 154//1 156//1
f 80//1 157//1 68//1 9//1
f 41//1 155//1 157//1 80//1
f 155//1 57//1 153//1 157//1
f 150//1 158//1 152//1 56//1
f 40//1 105//1 158//1 150//1
f 105//1 10//1 88//1 158//1
f 102//1 159//1 151//1 37//1
f 14//1 78//1 159//1 102//1
f 78//1 40//1 150//1 159//1
f 76//1 160//1 67//1 7//1
f 37//1 151//1 160//1 76//1
f 151//1 56//1 149//1 160//1
f 147//1 161//1 148//1 55//1
f 36//1 101//1 161//1 147//1
f 101//1 11//1 89//1 161//1
f 98//1 162//1 145//1 32//1
f 13//1 75//1 162//1 98//1
f 75//1 35//1 144//1 162//1
f 72//1 163//1 71//1 12//1
f 32//1 145//1 163//1 72//1
f 145//1 54//1 143//1 163//1
f 140//1 164//1 142//1 53//1
f 34//1 100//1 164//1 140//1
f 100//1 13//1 98//1 164//1
f 89//1 165//1 141//1 22//1
f 11//1 74//1 165//1 89//1
f 74//1 34//1 140//1 165//1
f 64//1 166//1 65//1 5//1
f 22//1 141//1 166//1 64//1
f 141//1 53//1 139//1 166//1
f 136//1 167//1 138//1 52//1
f 24//1 66//1 167//1 136//1
f 66//1 6//1 99//1 167//1
f 96//1 168//1 137//1 29//1
f 3//1 91//1 168//1 96//1
f 91//1 24//1 136//1 168//1
f 70//1 169//1 74//1 11//1
f 29//1 137//1 169//1 70//1
f 137//1 52//1 135//1 169//1
f 99//1 170//1 134//1 33//1
f 6//1 84//1 170//1 99//1
f 84//1 16//1 133//1 170//1
f 73//1 171//1 75//1 13//1
f 33//1 134//1 171//1 73//1
f 134//1 51//1 132//1 171//1
f 130//1 172//1 131//1 50//1
f 19//1 61//1 172//1 130//1
f 61//1 3//1 96//1 172//1
f 126//1 173//1 128//1 49//1
f 39//1 104//1 173//1 126//1
f 104//1 14//1 102//1 173//1
f 93//1 174//1 59//1 1//1
f 26//1 127//1 174//1 93//1
f 127//1 49//1 125//1 174//1
f 122//1 175//1 124//1 48//1
f 30//1 97//1 175//1 122//1
f 97//1 5//1 95//1 175//1
f 103//1 176//1 123//1 38//1
f 77//1 177//1 78//1 14//1
f 38//1 123//1 177//1 77//1
f 123//1 48//1 121//1 177//1
f 58//1 178//1 60//1 2//1
f 117//1 179//1 119//1 47//1
f 43//1 108//1 179//1 117//1
f 108//1 15//1 106//1 179//1
f 88//1 180//1 118//1 21//1
f 10//1 82//1 180//1 88//1
f 82//1 43//1 117//1 180//1
f 63//1 181//1 62//1 4//1
f 21//1 118//1 181//1 63//1
f 118//1 47//1 116//1 181//1
f 113//1 182//1 115//1 46//1
f 23//1 90//1 182//1 113//1
f 90//1 12//1 107//1 182//1
f 95//1 183//1 114//1 28//1
f 5//1 65//1 183//1 95//1
f 65//1 23//1 113//1 183//1
f 69//1 184//1 82//1 10//1
f 28//1 114//1 184//1 69//1
f 114//1 46//1 112//1 184//1
f 107//1 185//1 111//1 42//1
f 12//1 71//1 185//1 107//1
f 71//1 31//1 110//1 185//1
f 81//1 186//1 83//1 15//1
f 42//1 111//1 186//1 81//1
f 111//1 45//1 109//1 186//1
f 112//1 187//1 108//1 43//1
f 46//1 115//1 187//1 112//1
f 115//1 42//1 81//1 187//1
f 116//1 188//1 87//1 20//1
f 47//1 119//1 188//1 116//1
f 119//1 41//1 80//1 188//1
f 120//1 189//1 86//1 18//1
f 121//1 190//1 105//1 40//1
f 48//1 124//1 190//1 121//1
f 124//1 28//1 69//1 190//1
f 125//1 191//1 85//1 17//1
f 49//1 128//1 191//1 125//1
f 128//1 37//1 76//1 191//1
f 129//1 192//1 101//1 36//1
f 50//1 131//1 192//1 129//1
f 131//1 29//1 70//1 192//1
f 135//1 193//1 100//1 34//1
f 52//1 138//1 193//1 135//1
f 138//1 33//1 73//1 193//1
f 139//1 194//1 90//1 23//1
f 53//1 142//1 194//1 139//1
f 142//1 32//1 72//1 194//1
f 146//1 195//1 97//1 30//1
f 55//1 148//1 195//1 146//1
f 148//1 22//1 64//1 195//1
f 149//1 196//1 92//1 25//1
f 56//1 152//1 196//1 149//1
f 152//1 21//1 63//1 196//1
f 153//1 197//1 94//1 27//1
